<svg fill="#000000" width="256px" height="256px" viewBox="-2.4 -2.4 28.80 28.80" id="qr-code" data-name="Flat Color"
    xmlns="http://www.w3.org/2000/svg" class="icon flat-color">
    <g id="SVGRepo_bgCarrier" stroke-width="0">
        <rect x="-2.4" y="-2.4" width="28.80" height="28.80" rx="14.4" fill="#1F1F1F" strokewidth="0"></rect>
    </g>
    <g id="SVGRepo_tracerCarrier" stroke-linecap="round" stroke-linejoin="round"></g>
    <g id="SVGRepo_iconCarrier">
        <path id="secondary" d="M13,17V14a1,1,0,0,1,1-1h3a1,1,0,0,1,1,1v3a1,1,0,0,1-1,1H14A1,1,0,0,1,13,17Zm8-4a1,1,0,0,0-1,1v5a1,1,0,0,1-1,1H14a1,1,0,0,0,0,2h5a3,3,0,0,0,3-3V14A1,1,0,0,0,21,13Z" style="fill: #ffffff;"></path>
        <path id="primary" d="M22,4V9a2,2,0,0,1-2,2H15a2,2,0,0,1-2-2V4a2,2,0,0,1,2-2h5A2,2,0,0,1,22,4ZM9,13H4a2,2,0,0,0-2,2v5a2,2,0,0,0,2,2H9a2,2,0,0,0,2-2V15A2,2,0,0,0,9,13ZM9,2H4A2,2,0,0,0,2,4V9a2,2,0,0,0,2,2H9a2,2,0,0,0,2-2V4A2,2,0,0,0,9,2Z" style="fill: #ff0000;"></path>
    </g>
</svg>